 <svg id="visual" viewBox="0 0 3000 540" width="100%" height="100%" xmlns="http://www.w3.org/2000/svg" xmlns:xlink="http://www.w3.org/1999/xlink" version="1.1">
   <path filter="url(#noise)" d="M0 137L50 145.5C100 154 200 171 300 177C400 183 500 178 600 189.2C700 200.3 800 227.7 900 220.2C1000 212.7 1100 170.3 1200 169.5C1300 168.7 1400 209.3 1500 215.5C1600 221.7 1700 193.3 1800 196.5C1900 199.7 2000 234.3 2100 236.8C2200 239.3 2300 209.7 2400 207C2500 204.3 2600 228.7 2700 225.3C2800 222 2900 191 2950 175.5L3000 160L3000 541L2950 541C2900 541 2800 541 2700 541C2600 541 2500 541 2400 541C2300 541 2200 541 2100 541C2000 541 1900 541 1800 541C1700 541 1600 541 1500 541C1400 541 1300 541 1200 541C1100 541 1000 541 900 541C800 541 700 541 600 541C500 541 400 541 300 541C200 541 100 541 50 541L0 541Z" fill="#ffee43">

   </path>
   <path filter="url(#noise)" d="M0 186L50 196.5C100 207 200 228 300 240.2C400 252.3 500 255.7 600 256.8C700 258 800 257 900 264.5C1000 272 1100 288 1200 288.2C1300 288.3 1400 272.7 1500 276.3C1600 280 1700 303 1800 294C1900 285 2000 244 2100 241.8C2200 239.7 2300 276.3 2400 280.5C2500 284.7 2600 256.3 2700 242.7C2800 229 2900 230 2950 230.5L3000 231L3000 541L2950 541C2900 541 2800 541 2700 541C2600 541 2500 541 2400 541C2300 541 2200 541 2100 541C2000 541 1900 541 1800 541C1700 541 1600 541 1500 541C1400 541 1300 541 1200 541C1100 541 1000 541 900 541C800 541 700 541 600 541C500 541 400 541 300 541C200 541 100 541 50 541L0 541Z" fill="#ffda39">

   </path>
   <path filter="url(#noise)" d="M0 327L50 317.7C100 308.3 200 289.7 300 290.5C400 291.3 500 311.7 600 313.2C700 314.7 800 297.3 900 292.8C1000 288.3 1100 296.7 1200 313.5C1300 330.3 1400 355.7 1500 367C1600 378.3 1700 375.7 1800 354.8C1900 334 2000 295 2100 281.2C2200 267.3 2300 278.7 2400 300C2500 321.3 2600 352.7 2700 357.3C2800 362 2900 340 2950 329L3000 318L3000 541L2950 541C2900 541 2800 541 2700 541C2600 541 2500 541 2400 541C2300 541 2200 541 2100 541C2000 541 1900 541 1800 541C1700 541 1600 541 1500 541C1400 541 1300 541 1200 541C1100 541 1000 541 900 541C800 541 700 541 600 541C500 541 400 541 300 541C200 541 100 541 50 541L0 541Z" fill="#ffc632">

   </path>
   <path filter="url(#noise)" d="M0 408L50 399.2C100 390.3 200 372.7 300 371.8C400 371 500 387 600 398.7C700 410.3 800 417.7 900 421.7C1000 425.7 1100 426.3 1200 417.2C1300 408 1400 389 1500 383.5C1600 378 1700 386 1800 379.3C1900 372.7 2000 351.3 2100 353.8C2200 356.3 2300 382.7 2400 399.5C2500 416.3 2600 423.7 2700 427.7C2800 431.7 2900 432.3 2950 432.7L3000 433L3000 541L2950 541C2900 541 2800 541 2700 541C2600 541 2500 541 2400 541C2300 541 2200 541 2100 541C2000 541 1900 541 1800 541C1700 541 1600 541 1500 541C1400 541 1300 541 1200 541C1100 541 1000 541 900 541C800 541 700 541 600 541C500 541 400 541 300 541C200 541 100 541 50 541L0 541Z" fill="#ffb22f">

   </path>
   <path filter="url(#noise)" d="M0 472L50 472.3C100 472.7 200 473.3 300 468.2C400 463 500 452 600 452.2C700 452.3 800 463.7 900 457.7C1000 451.7 1100 428.3 1200 419.7C1300 411 1400 417 1500 418.8C1600 420.7 1700 418.3 1800 420.8C1900 423.3 2000 430.7 2100 439.3C2200 448 2300 458 2400 465.2C2500 472.3 2600 476.7 2700 468.8C2800 461 2900 441 2950 431L3000 421L3000 541L2950 541C2900 541 2800 541 2700 541C2600 541 2500 541 2400 541C2300 541 2200 541 2100 541C2000 541 1900 541 1800 541C1700 541 1600 541 1500 541C1400 541 1300 541 1200 541C1100 541 1000 541 900 541C800 541 700 541 600 541C500 541 400 541 300 541C200 541 100 541 50 541L0 541Z" fill="#fc9f30">

   </path>
   <filter id="noise">
     <feTurbulence type='fractalNoise' baseFrequency='0.65' numOctaves='3' stitchTiles='stitch' />
     <feSpecularLighting surfaceScale="10" specularConstant="1.5" specularExponent="2" lighting-color="#525226" x="0%" y="0%" width="100%" height="100%" in="turbulence" result="specularLighting">
       <feDistantLight azimuth="0.3" elevation="1"></feDistantLight>
     </feSpecularLighting>
     <feColorMatrix type="saturate" values="0" />
     <feComposite operator="in" in2="SourceGraphic" result="noisy" />
     <feBlend in="SourceGraphic" in2="noisy" mode="multiply" />

   </filter>
 </svg>