
    <svg id="visual" viewBox="0 0 3000 540" width="100%" height="100%" xmlns="http://www.w3.org/2000/svg" xmlns:xlink="http://www.w3.org/1999/xlink" version="1.1">
      <path d="m 0,100 62.5,0.5 C 125,101 250,102 375,115.5 500,129 625,155 750,154.2 c 125,-0.9 250,-28.5 375,-34.7 125,-6.2 250,9.2 375,23.8 125,14.7 250,28.7 375,22 125,-6.6 250,-34 375,-36.8 125,-2.8 250,18.8 375,27.7 125,8.8 250,4.8 312.5,2.8 l 62.5,-2 v 250 h -62.5 c -62.5,0 -187.5,0 -312.5,0 -125,0 -250,0 -375,0 -125,0 -250,0 -375,0 -125,0 -250,0 -375,0 -125,0 -250,0 -375,0 -125,0 -250,0 -375,0 -125,0 -250,0 -375,0 -125,0 -250,0 -312.5,0 H 0 Z" id="path2" inkscape:connector-curvature="0" fill="#000916" />
    </svg>