
    <svg xmlns:dc="http://purl.org/dc/elements/1.1/" xmlns:cc="http://creativecommons.org/ns#" xmlns:rdf="http://www.w3.org/1999/02/22-rdf-syntax-ns#" xmlns:svg="http://www.w3.org/2000/svg" xmlns="http://www.w3.org/2000/svg" xmlns:sodipodi="http://sodipodi.sourceforge.net/DTD/sodipodi-0.dtd" xmlns:inkscape="http://www.inkscape.org/namespaces/inkscape" id="visual" viewBox="0 0 3000 200" width="3000" height="200" version="1.1" sodipodi:docname="wave-haikei(1).svg" inkscape:version="0.92.5 (2060ec1f9f, 2020-04-08)">
      <metadata id="metadata9">
        <rdf:RDF>
          <cc:Work rdf:about="">
            <dc:format>image/svg+xml</dc:format>
            <dc:type rdf:resource="http://purl.org/dc/dcmitype/StillImage" />
            <dc:title></dc:title>
          </cc:Work>
        </rdf:RDF>
      </metadata>
      <defs id="defs7" />
      <sodipodi:namedview pagecolor="#ffffff" bordercolor="#666666" borderopacity="1" objecttolerance="10" gridtolerance="10" guidetolerance="10" inkscape:pageopacity="0" inkscape:pageshadow="2" inkscape:window-width="1920" inkscape:window-height="1009" id="namedview5" showgrid="true" inkscape:lockguides="false" inkscape:zoom="0.26210091" inkscape:cx="373.35627" inkscape:cy="155.54027" inkscape:window-x="0" inkscape:window-y="0" inkscape:window-maximized="1" inkscape:current-layer="visual">
        <inkscape:grid type="xygrid" id="grid13" />
      </sodipodi:namedview>
      <path d="m 0,100 62.5,0.5 C 125,101 250,102 375,115.5 500,129 625,155 750,154.2 c 125,-0.9 250,-28.5 375,-34.7 125,-6.2 250,9.2 375,23.8 125,14.7 250,28.7 375,22 125,-6.6 250,-34 375,-36.8 125,-2.8 250,18.8 375,27.7 125,8.8 250,4.8 312.5,2.8 l 62.5,-2 v 250 h -62.5 c -62.5,0 -187.5,0 -312.5,0 -125,0 -250,0 -375,0 -125,0 -250,0 -375,0 -125,0 -250,0 -375,0 -125,0 -250,0 -375,0 -125,0 -250,0 -375,0 -125,0 -250,0 -375,0 -125,0 -250,0 -312.5,0 H 0 Z" id="path2" inkscape:connector-curvature="0" style="fill:#000916;stroke-linecap:round;stroke-linejoin:miter" />
    </svg>