<svg id="visual" viewBox="0 0 960 540" width="960" height="540" xmlns="http://www.w3.org/2000/svg" xmlns:xlink="http://www.w3.org/1999/xlink" version="1.1"><g><g transform="translate(476 159)"><path d="M0 -12.8L12.8 0L0 12.8L-12.8 0Z" fill="#e51919"></path></g><g transform="translate(646 55)"><path d="M0 -5L5 0L0 5L-5 0Z" fill="#e51919"></path></g><g transform="translate(350 193)"><path d="M0 -1L1 0L0 1L-1 0Z" fill="#e51919"></path></g><g transform="translate(353 307)"><path d="M0 -7L7 0L0 7L-7 0Z" fill="#e51919"></path></g><g transform="translate(374 114)"><path d="M0 -2L2 0L0 2L-2 0Z" fill="#e51919"></path></g><g transform="translate(884 229)"><path d="M0 -6L6 0L0 6L-6 0Z" fill="#e51919"></path></g><g transform="translate(535 159)"><path d="M0 -5L5 0L0 5L-5 0Z" fill="#e51919"></path></g><g transform="translate(530 319)"><path d="M0 -3L3 0L0 3L-3 0Z" fill="#e51919"></path></g><g transform="translate(8 193)"><path d="M0 -1L1 0L0 1L-1 0Z" fill="#e51919"></path></g><g transform="translate(40 371)"><path d="M0 -1L1 0L0 1L-1 0Z" fill="#e51919"></path></g><g transform="translate(66 421)"><path d="M0 -6L6 0L0 6L-6 0Z" fill="#e51919"></path></g><g transform="translate(454 60)"><path d="M0 -9L9 0L0 9L-9 0Z" fill="#e51919"></path></g><g transform="translate(296 318)"><path d="M0 -3L3 0L0 3L-3 0Z" fill="#e51919"></path></g></g></svg>