<svg id="visual" viewBox="0 0 3000 540" width="3000" height="540" xmlns="http://www.w3.org/2000/svg" xmlns:xlink="http://www.w3.org/1999/xlink" version="1.1"><g><g transform="translate(238 518)"><path d="M0 -22.7L22.7 0L0 22.7L-22.7 0Z" fill="#e51919"></path></g><g transform="translate(2332 120)"><path d="M0 -9L9 0L0 9L-9 0Z" fill="#e51919"></path></g><g transform="translate(2131 385)"><path d="M0 -20L20 0L0 20L-20 0Z" fill="#e51919"></path></g><g transform="translate(2320 256)"><path d="M0 -12L12 0L0 12L-12 0Z" fill="#e51919"></path></g><g transform="translate(2691 172)"><path d="M0 -19L19 0L0 19L-19 0Z" fill="#e51919"></path></g><g transform="translate(2077 140)"><path d="M0 -2L2 0L0 2L-2 0Z" fill="#e51919"></path></g><g transform="translate(190 487)"><path d="M0 -15L15 0L0 15L-15 0Z" fill="#e51919"></path></g><g transform="translate(2386 40)"><path d="M0 -10L10 0L0 10L-10 0Z" fill="#e51919"></path></g><g transform="translate(2027 239)"><path d="M0 -20L20 0L0 20L-20 0Z" fill="#e51919"></path></g><g transform="translate(562 190)"><path d="M0 -15L15 0L0 15L-15 0Z" fill="#e51919"></path></g><g transform="translate(1097 295)"><path d="M0 -10L10 0L0 10L-10 0Z" fill="#e51919"></path></g><g transform="translate(629 375)"><path d="M0 -11L11 0L0 11L-11 0Z" fill="#e51919"></path></g><g transform="translate(2163 321)"><path d="M0 -2L2 0L0 2L-2 0Z" fill="#e51919"></path></g><g transform="translate(694 390)"><path d="M0 -11L11 0L0 11L-11 0Z" fill="#e51919"></path></g><g transform="translate(891 20)"><path d="M0 -14L14 0L0 14L-14 0Z" fill="#e51919"></path></g><g transform="translate(1360 424)"><path d="M0 -13L13 0L0 13L-13 0Z" fill="#e51919"></path></g><g transform="translate(501 141)"><path d="M0 -12L12 0L0 12L-12 0Z" fill="#e51919"></path></g><g transform="translate(513 534)"><path d="M0 -7L7 0L0 7L-7 0Z" fill="#e51919"></path></g><g transform="translate(2426 249)"><path d="M0 -13L13 0L0 13L-13 0Z" fill="#e51919"></path></g><g transform="translate(1261 538)"><path d="M0 -11L11 0L0 11L-11 0Z" fill="#e51919"></path></g><g transform="translate(2504 309)"><path d="M0 -3L3 0L0 3L-3 0Z" fill="#e51919"></path></g><g transform="translate(1435 424)"><path d="M0 -12L12 0L0 12L-12 0Z" fill="#e51919"></path></g><g transform="translate(551 369)"><path d="M0 -12L12 0L0 12L-12 0Z" fill="#e51919"></path></g><g transform="translate(2320 17)"><path d="M0 -19L19 0L0 19L-19 0Z" fill="#e51919"></path></g><g transform="translate(2597 208)"><path d="M0 -20L20 0L0 20L-20 0Z" fill="#e51919"></path></g><g transform="translate(1143 145)"><path d="M0 -16L16 0L0 16L-16 0Z" fill="#e51919"></path></g><g transform="translate(2203 492)"><path d="M0 -7L7 0L0 7L-7 0Z" fill="#e51919"></path></g></g></svg>