<svg id="visual" viewBox="0 0 960 540" width="960" height="540" xmlns="http://www.w3.org/2000/svg" xmlns:xlink="http://www.w3.org/1999/xlink" version="1.1"><g><g transform="translate(821 363)"><path d="M0 -12.8L12.8 0L0 12.8L-12.8 0Z" fill="#e51919"></path></g><g transform="translate(260 57)"><path d="M0 -10L10 0L0 10L-10 0Z" fill="#e51919"></path></g><g transform="translate(731 54)"><path d="M0 -7L7 0L0 7L-7 0Z" fill="#e51919"></path></g><g transform="translate(18 498)"><path d="M0 -9L9 0L0 9L-9 0Z" fill="#e51919"></path></g><g transform="translate(605 470)"><path d="M0 -10L10 0L0 10L-10 0Z" fill="#e51919"></path></g><g transform="translate(635 345)"><path d="M0 -1L1 0L0 1L-1 0Z" fill="#e51919"></path></g><g transform="translate(853 467)"><path d="M0 -1L1 0L0 1L-1 0Z" fill="#e51919"></path></g><g transform="translate(51 319)"><path d="M0 -2L2 0L0 2L-2 0Z" fill="#e51919"></path></g><g transform="translate(671 131)"><path d="M0 -9L9 0L0 9L-9 0Z" fill="#e51919"></path></g><g transform="translate(369 536)"><path d="M0 -8L8 0L0 8L-8 0Z" fill="#e51919"></path></g><g transform="translate(802 200)"><path d="M0 -10L10 0L0 10L-10 0Z" fill="#e51919"></path></g><g transform="translate(236 313)"><path d="M0 -10L10 0L0 10L-10 0Z" fill="#e51919"></path></g><g transform="translate(388 182)"><path d="M0 -1L1 0L0 1L-1 0Z" fill="#e51919"></path></g></g></svg>