    <svg id="visual" viewBox="0 0 3000 540" width="100%" height="100%" xmlns="http://www.w3.org/2000/svg" xmlns:xlink="http://www.w3.org/1999/xlink" version="1.1">
      <path d="M0 218L45.5 219.3C91 220.7 182 223.3 272.8 225.7C363.7 228 454.3 230 545.2 235.8C636 241.7 727 251.3 818 257.7C909 264 1000 267 1091 267.8C1182 268.7 1273 267.3 1363.8 261.3C1454.7 255.3 1545.3 244.7 1636.2 241C1727 237.3 1818 240.7 1909 237.7C2000 234.7 2091 225.3 2182 229.8C2273 234.3 2364 252.7 2454.8 262C2545.7 271.3 2636.3 271.7 2727.2 265.3C2818 259 2909 246 2954.5 239.5L3000 233L3000 541L2954.5 541C2909 541 2818 541 2727.2 541C2636.3 541 2545.7 541 2454.8 541C2364 541 2273 541 2182 541C2091 541 2000 541 1909 541C1818 541 1727 541 1636.2 541C1545.3 541 1454.7 541 1363.8 541C1273 541 1182 541 1091 541C1000 541 909 541 818 541C727 541 636 541 545.2 541C454.3 541 363.7 541 272.8 541C182 541 91 541 45.5 541L0 541Z" fill="#cdfaff"></path>
      <path d="M0 331L45.5 333.3C91 335.7 182 340.3 272.8 330.2C363.7 320 454.3 295 545.2 296C636 297 727 324 818 325.2C909 326.3 1000 301.7 1091 289.2C1182 276.7 1273 276.3 1363.8 281.8C1454.7 287.3 1545.3 298.7 1636.2 304.5C1727 310.3 1818 310.7 1909 306.3C2000 302 2091 293 2182 287.3C2273 281.7 2364 279.3 2454.8 278.5C2545.7 277.7 2636.3 278.3 2727.2 283C2818 287.7 2909 296.3 2954.5 300.7L3000 305L3000 541L2954.5 541C2909 541 2818 541 2727.2 541C2636.3 541 2545.7 541 2454.8 541C2364 541 2273 541 2182 541C2091 541 2000 541 1909 541C1818 541 1727 541 1636.2 541C1545.3 541 1454.7 541 1363.8 541C1273 541 1182 541 1091 541C1000 541 909 541 818 541C727 541 636 541 545.2 541C454.3 541 363.7 541 272.8 541C182 541 91 541 45.5 541L0 541Z" fill="#90e4fb"></path>
      <path d="M0 342L45.5 338.3C91 334.7 182 327.3 272.8 325.5C363.7 323.7 454.3 327.3 545.2 327.3C636 327.3 727 323.7 818 321.2C909 318.7 1000 317.3 1091 321.7C1182 326 1273 336 1363.8 335.2C1454.7 334.3 1545.3 322.7 1636.2 328.7C1727 334.7 1818 358.3 1909 366.3C2000 374.3 2091 366.7 2182 362.5C2273 358.3 2364 357.7 2454.8 352.3C2545.7 347 2636.3 337 2727.2 335.2C2818 333.3 2909 339.7 2954.5 342.8L3000 346L3000 541L2954.5 541C2909 541 2818 541 2727.2 541C2636.3 541 2545.7 541 2454.8 541C2364 541 2273 541 2182 541C2091 541 2000 541 1909 541C1818 541 1727 541 1636.2 541C1545.3 541 1454.7 541 1363.8 541C1273 541 1182 541 1091 541C1000 541 909 541 818 541C727 541 636 541 545.2 541C454.3 541 363.7 541 272.8 541C182 541 91 541 45.5 541L0 541Z" fill="#49ccfd"></path>
      <path d="M0 360L45.5 364.7C91 369.3 182 378.7 272.8 387.8C363.7 397 454.3 406 545.2 403.5C636 401 727 387 818 381.2C909 375.3 1000 377.7 1091 378.3C1182 379 1273 378 1363.8 380.5C1454.7 383 1545.3 389 1636.2 393.5C1727 398 1818 401 1909 396.8C2000 392.7 2091 381.3 2182 376.5C2273 371.7 2364 373.3 2454.8 375C2545.7 376.7 2636.3 378.3 2727.2 378.8C2818 379.3 2909 378.7 2954.5 378.3L3000 378L3000 541L2954.5 541C2909 541 2818 541 2727.2 541C2636.3 541 2545.7 541 2454.8 541C2364 541 2273 541 2182 541C2091 541 2000 541 1909 541C1818 541 1727 541 1636.2 541C1545.3 541 1454.7 541 1363.8 541C1273 541 1182 541 1091 541C1000 541 909 541 818 541C727 541 636 541 545.2 541C454.3 541 363.7 541 272.8 541C182 541 91 541 45.5 541L0 541Z" fill="#00b1ff"></path>
      <path d="M0 443L45.5 443.2C91 443.3 182 443.7 272.8 436.7C363.7 429.7 454.3 415.3 545.2 410.3C636 405.3 727 409.7 818 412.8C909 416 1000 418 1091 417.5C1182 417 1273 414 1363.8 415.7C1454.7 417.3 1545.3 423.7 1636.2 424.2C1727 424.7 1818 419.3 1909 416.8C2000 414.3 2091 414.7 2182 418.2C2273 421.7 2364 428.3 2454.8 428C2545.7 427.7 2636.3 420.3 2727.2 418.7C2818 417 2909 421 2954.5 423L3000 425L3000 541L2954.5 541C2909 541 2818 541 2727.2 541C2636.3 541 2545.7 541 2454.8 541C2364 541 2273 541 2182 541C2091 541 2000 541 1909 541C1818 541 1727 541 1636.2 541C1545.3 541 1454.7 541 1363.8 541C1273 541 1182 541 1091 541C1000 541 909 541 818 541C727 541 636 541 545.2 541C454.3 541 363.7 541 272.8 541C182 541 91 541 45.5 541L0 541Z" fill="#0093ff"></path>
      <path d="M0 465L45.5 465.3C91 465.7 182 466.3 272.8 468.2C363.7 470 454.3 473 545.2 471.5C636 470 727 464 818 459.3C909 454.7 1000 451.3 1091 450.2C1182 449 1273 450 1363.8 452.5C1454.7 455 1545.3 459 1636.2 462.2C1727 465.3 1818 467.7 1909 469.7C2000 471.7 2091 473.3 2182 473.3C2273 473.3 2364 471.7 2454.8 471.5C2545.7 471.3 2636.3 472.7 2727.2 470.2C2818 467.7 2909 461.3 2954.5 458.2L3000 455L3000 541L2954.5 541C2909 541 2818 541 2727.2 541C2636.3 541 2545.7 541 2454.8 541C2364 541 2273 541 2182 541C2091 541 2000 541 1909 541C1818 541 1727 541 1636.2 541C1545.3 541 1454.7 541 1363.8 541C1273 541 1182 541 1091 541C1000 541 909 541 818 541C727 541 636 541 545.2 541C454.3 541 363.7 541 272.8 541C182 541 91 541 45.5 541L0 541Z" fill="#0d6efd"></path>
    </svg>